<?xml version="1.0" encoding="UTF-8" standalone="no"?>
<svg
   width="89.400002"
   height="34.400002"
   version="1.2"
   xml:space="preserve"
   id="svg1"
   sodipodi:docname="svg.svg"
   inkscape:version="1.4.2 (f4327f4, 2025-05-13)"
   xmlns:inkscape="http://www.inkscape.org/namespaces/inkscape"
   xmlns:sodipodi="http://sodipodi.sourceforge.net/DTD/sodipodi-0.dtd"
   xmlns="http://www.w3.org/2000/svg"
   xmlns:svg="http://www.w3.org/2000/svg"><defs
   id="defs1" /><sodipodi:namedview
   id="namedview1"
   pagecolor="#ffffff"
   bordercolor="#000000"
   borderopacity="0"
   inkscape:showpageshadow="2"
   inkscape:pageopacity="0.0"
   inkscape:pagecheckerboard="0"
   inkscape:deskcolor="#d1d1d1"
   inkscape:zoom="8.0000001"
   inkscape:cx="33.3125"
   inkscape:cy="17.1875"
   inkscape:window-width="1920"
   inkscape:window-height="1009"
   inkscape:window-x="-8"
   inkscape:window-y="-8"
   inkscape:window-maximized="1"
   inkscape:current-layer="svg1"
   showborder="false" />
 <g
   id="g1"
   transform="translate(0.42309701,0.30921234)">
  <title
   id="title1">Layer 1</title>
  <g
   id="svg_1">
   <path
   fill="#161616"
   d="m 21.1,20.8 c 0,1.2 -0.2,2.3 -0.6,3.3 -0.4,1 -1,1.8 -1.7,2.5 -0.7,0.7 -1.5,1.2 -2.5,1.6 -0.9,0.4 -1.9,0.5 -2.9,0.5 -1,0 -2,-0.2 -2.9,-0.5 C 9.6,27.8 8.7,27.3 8,26.6 7.3,25.9 6.7,25.1 6.3,24.1 5.9,23.1 5.7,22 5.7,20.8 V 0 H 0 v 20.9 c 0,2.6 0.6,4.9 1.7,6.9 1.1,2 2.7,3.5 4.7,4.5 2,1.1 4.3,1.6 7,1.6 2.6,0 5,-0.5 7,-1.6 2,-1.1 3.6,-2.6 4.7,-4.5 1.1,-2 1.7,-4.2 1.7,-6.9 V 0 h -5.6 l -0.09391,20.8 z"
   id="svg_2"
   sodipodi:nodetypes="csscscsssccsscsscscccc" />
   <path
   fill="#161616"
   d="M 40,0 29.5,33.3 h 5.7 l 2.3,-7.2 h 13.1 l 2.3,7.2 h 5.7 L 48.1,0 Z M 39.1,20.9 44,5.4 48.9,20.9 Z"
   id="svg_3" />
   <path
   fill="#0060ab"
   d="M 89.2,0 H 82.4 L 74.6,16.6 66.8,0 H 60 L 67.8,16.6 60,33.2 h 6.8 l 7.8,-16.6 7.8,16.6 h 6.8 L 81.4,16.6 Z"
   id="svg_4" />
  </g>
 </g>

</svg>
